<svg width="926" height="1152" viewBox="0 0 926 1152" fill="none" xmlns="http://www.w3.org/2000/svg">
<path d="M625.556 369C613.483 440.232 577.498 503.326 526.147 549.739C526.049 547.166 526 544.58 526 541.982C526 468.138 566.021 403.644 625.556 369Z" fill="#A5301C"/>
<path d="M525.926 548.526C596.528 588.219 651.229 655.698 677.199 737.3C593.353 716.808 530.201 640.679 525.926 548.526Z" fill="#B09CC3"/>
<circle cx="726" cy="541" r="199.5" stroke="black" stroke-linecap="round" stroke-linejoin="round" stroke-dasharray="5 5"/>
<path d="M377.715 514C430.093 514 479.485 527.311 522.942 550.861C468.14 600.103 396.051 630 317.078 630C264.674 630 215.302 616.835 172 593.59C227.192 543.993 299.09 514 377.715 514Z" fill="#DB9B1D"/>
<circle cx="315" cy="315" r="314.5" stroke="black" stroke-linecap="round" stroke-linejoin="round" stroke-dasharray="5 5"/>
<circle cx="381" cy="833" r="311" stroke="black" stroke-linecap="round" stroke-linejoin="round" stroke-dasharray="5 5"/>
</svg>
