<svg width="69" height="31" viewBox="0 0 69 31" fill="none" xmlns="http://www.w3.org/2000/svg">
<path d="M14.232 25.288C13.352 25.288 12.648 25.152 12.12 24.88C11.592 24.608 11.184 24.248 10.896 23.8C10.624 23.336 10.44 22.808 10.344 22.216C10.248 21.624 10.2 21.008 10.2 20.368V13.264H13.344V20.392C13.344 21.112 13.496 21.592 13.8 21.832C14.12 22.072 14.496 22.192 14.928 22.192C15.328 22.192 15.728 22.12 16.128 21.976C16.528 21.832 16.904 21.624 17.256 21.352C17.624 21.064 17.928 20.736 18.168 20.368L18.552 22.024H17.784V13.264H20.928V25H18.576L17.928 22.768L18.936 22.792C18.536 23.256 18.08 23.68 17.568 24.064C17.072 24.448 16.536 24.752 15.96 24.976C15.4 25.184 14.824 25.288 14.232 25.288ZM41.643 25.288C40.427 25.288 39.355 25.032 38.427 24.52C37.515 23.992 36.803 23.272 36.291 22.36C35.779 21.432 35.523 20.36 35.523 19.144C35.523 17.928 35.779 16.864 36.291 15.952C36.803 15.024 37.515 14.304 38.427 13.792C39.355 13.264 40.427 13 41.643 13C42.859 13 43.923 13.264 44.835 13.792C45.763 14.304 46.483 15.024 46.995 15.952C47.507 16.864 47.763 17.928 47.763 19.144C47.763 20.36 47.507 21.432 46.995 22.36C46.483 23.272 45.763 23.992 44.835 24.52C43.923 25.032 42.859 25.288 41.643 25.288ZM41.643 22.24C42.507 22.24 43.211 21.952 43.755 21.376C44.299 20.8 44.571 20.056 44.571 19.144C44.571 18.216 44.299 17.464 43.755 16.888C43.211 16.312 42.507 16.024 41.643 16.024C40.779 16.024 40.075 16.312 39.531 16.888C39.003 17.448 38.739 18.192 38.739 19.12C38.739 20.048 39.003 20.8 39.531 21.376C40.075 21.952 40.779 22.24 41.643 22.24ZM61.3305 25.288C60.1145 25.288 59.0425 25.032 58.1145 24.52C57.2025 23.992 56.4905 23.272 55.9785 22.36C55.4665 21.432 55.2105 20.36 55.2105 19.144C55.2105 17.928 55.4665 16.864 55.9785 15.952C56.4905 15.024 57.2025 14.304 58.1145 13.792C59.0425 13.264 60.1145 13 61.3305 13C62.5465 13 63.6105 13.264 64.5225 13.792C65.4505 14.304 66.1705 15.024 66.6825 15.952C67.1945 16.864 67.4505 17.928 67.4505 19.144C67.4505 20.36 67.1945 21.432 66.6825 22.36C66.1705 23.272 65.4505 23.992 64.5225 24.52C63.6105 25.032 62.5465 25.288 61.3305 25.288ZM61.3305 22.24C62.1945 22.24 62.8985 21.952 63.4425 21.376C63.9865 20.8 64.2585 20.056 64.2585 19.144C64.2585 18.216 63.9865 17.464 63.4425 16.888C62.8985 16.312 62.1945 16.024 61.3305 16.024C60.4665 16.024 59.7625 16.312 59.2185 16.888C58.6905 17.448 58.4265 18.192 58.4265 19.12C58.4265 20.048 58.6905 20.8 59.2185 21.376C59.7625 21.952 60.4665 22.24 61.3305 22.24Z" fill="#4C6D5A"/>
<path d="M26.5136 25.12C25.9856 25.12 25.4976 25.008 25.0496 24.784C24.6176 24.56 24.2656 24.216 23.9936 23.752C23.7376 23.272 23.6096 22.656 23.6096 21.904V8.656H26.7296V20.8C26.7296 21.36 26.8416 21.728 27.0656 21.904C27.2896 22.064 27.5616 22.144 27.8816 22.144V24.952C27.7056 25.016 27.4896 25.056 27.2336 25.072C26.9936 25.104 26.7536 25.12 26.5136 25.12ZM32.8183 25.12C32.2903 25.12 31.8023 25.008 31.3543 24.784C30.9223 24.56 30.5703 24.216 30.2983 23.752C30.0423 23.272 29.9143 22.656 29.9143 21.904V8.656H33.0343V20.8C33.0343 21.36 33.1463 21.728 33.3703 21.904C33.5943 22.064 33.8663 22.144 34.1863 22.144V24.952C34.0103 25.016 33.7943 25.056 33.5383 25.072C33.2983 25.104 33.0583 25.12 32.8183 25.12ZM52.5058 25.12C51.9778 25.12 51.4898 25.008 51.0418 24.784C50.6098 24.56 50.2578 24.216 49.9858 23.752C49.7298 23.272 49.6018 22.656 49.6018 21.904V8.656H52.7218V20.8C52.7218 21.36 52.8338 21.728 53.0578 21.904C53.2818 22.064 53.5538 22.144 53.8738 22.144V24.952C53.6978 25.016 53.4818 25.056 53.2258 25.072C52.9858 25.104 52.7458 25.12 52.5058 25.12Z" fill="#0E131E"/>
<path d="M3.912 16.52V13.52H10.464V16.52H3.912ZM4.776 23H1.632V6.656H11.736V9.656H3.768L4.776 8.432V23ZM26.9859 11C27.7859 11 28.4259 11.136 28.9059 11.408C29.4019 11.68 29.7699 12.048 30.0099 12.512C30.2659 12.976 30.4339 13.504 30.5139 14.096C30.5939 14.672 30.6339 15.272 30.6339 15.896V23H27.4899V15.872C27.4899 15.152 27.3459 14.672 27.0579 14.432C26.7859 14.192 26.4339 14.072 26.0019 14.072C25.6019 14.072 25.1939 14.152 24.7779 14.312C24.3619 14.456 23.9699 14.672 23.6019 14.96C23.2499 15.232 22.9459 15.544 22.6899 15.896L22.2819 14.264H23.0739V23H19.9299V11.264H22.2819L22.9299 13.52L21.9219 13.472C22.3379 12.992 22.8099 12.568 23.3379 12.2C23.8819 11.832 24.4579 11.544 25.0659 11.336C25.6739 11.112 26.3139 11 26.9859 11ZM33.9653 23V10.376C33.9653 9.512 34.1173 8.784 34.4213 8.192C34.7413 7.584 35.1813 7.128 35.7413 6.824C36.3013 6.52 36.9653 6.368 37.7333 6.368C38.1173 6.368 38.4613 6.392 38.7653 6.44C39.0693 6.488 39.3173 6.536 39.5093 6.584V9.464C39.3493 9.432 39.1813 9.4 39.0053 9.368C38.8453 9.336 38.6533 9.32 38.4293 9.32C38.0293 9.32 37.7093 9.44 37.4693 9.68C37.2293 9.904 37.1093 10.28 37.1093 10.808V23H33.9653ZM39.2453 14.408H32.3093V11.528H39.2453V14.408ZM50.1855 23.12C49.6575 23.12 49.1695 23.008 48.7215 22.784C48.2895 22.56 47.9375 22.216 47.6655 21.752C47.4095 21.272 47.2815 20.656 47.2815 19.904V6.656H50.4015V18.8C50.4015 19.36 50.5135 19.728 50.7375 19.904C50.9615 20.064 51.2335 20.144 51.5535 20.144V22.952C51.3775 23.016 51.1615 23.056 50.9055 23.072C50.6655 23.104 50.4255 23.12 50.1855 23.12ZM56.7782 23H53.6342V11.264H56.7782V23ZM53.2982 7.616C53.2982 7.04 53.4662 6.576 53.8022 6.224C54.1542 5.856 54.6182 5.672 55.1942 5.672C55.7702 5.672 56.2262 5.856 56.5622 6.224C56.9142 6.576 57.0902 7.04 57.0902 7.616C57.0902 8.16 56.9142 8.608 56.5622 8.96C56.2262 9.312 55.7702 9.488 55.1942 9.488C54.6182 9.488 54.1542 9.312 53.8022 8.96C53.4662 8.608 53.2982 8.16 53.2982 7.616Z" fill="#4C6D5A"/>
</svg>
