<svg width="76" height="32" viewBox="0 0 76 32" fill="none" xmlns="http://www.w3.org/2000/svg">
<path d="M16.768 26.288C15.552 26.288 14.48 26.032 13.552 25.52C12.64 24.992 11.928 24.272 11.416 23.36C10.904 22.432 10.648 21.36 10.648 20.144C10.648 18.928 10.904 17.864 11.416 16.952C11.928 16.024 12.64 15.304 13.552 14.792C14.48 14.264 15.552 14 16.768 14C17.984 14 19.048 14.264 19.96 14.792C20.888 15.304 21.608 16.024 22.12 16.952C22.632 17.864 22.888 18.928 22.888 20.144C22.888 21.36 22.632 22.432 22.12 23.36C21.608 24.272 20.888 24.992 19.96 25.52C19.048 26.032 17.984 26.288 16.768 26.288ZM16.768 23.24C17.632 23.24 18.336 22.952 18.88 22.376C19.424 21.8 19.696 21.056 19.696 20.144C19.696 19.216 19.424 18.464 18.88 17.888C18.336 17.312 17.632 17.024 16.768 17.024C15.904 17.024 15.2 17.312 14.656 17.888C14.128 18.448 13.864 19.192 13.864 20.12C13.864 21.048 14.128 21.8 14.656 22.376C15.2 22.952 15.904 23.24 16.768 23.24ZM49.0649 26.288C47.8489 26.288 46.7769 26.032 45.8489 25.52C44.9369 24.992 44.2249 24.272 43.7129 23.36C43.2009 22.432 42.9449 21.36 42.9449 20.144C42.9449 18.928 43.2009 17.864 43.7129 16.952C44.2249 16.024 44.9369 15.304 45.8489 14.792C46.7769 14.264 47.8489 14 49.0649 14C50.2809 14 51.3449 14.264 52.2569 14.792C53.1849 15.304 53.9049 16.024 54.4169 16.952C54.9289 17.864 55.1849 18.928 55.1849 20.144C55.1849 21.36 54.9289 22.432 54.4169 23.36C53.9049 24.272 53.1849 24.992 52.2569 25.52C51.3449 26.032 50.2809 26.288 49.0649 26.288ZM49.0649 23.24C49.9289 23.24 50.6329 22.952 51.1769 22.376C51.7209 21.8 51.9929 21.056 51.9929 20.144C51.9929 19.216 51.7209 18.464 51.1769 17.888C50.6329 17.312 49.9289 17.024 49.0649 17.024C48.2009 17.024 47.4969 17.312 46.9529 17.888C46.4249 18.448 46.1609 19.192 46.1609 20.12C46.1609 21.048 46.4249 21.8 46.9529 22.376C47.4969 22.952 48.2009 23.24 49.0649 23.24ZM68.7524 26.288C67.5364 26.288 66.4644 26.032 65.5364 25.52C64.6244 24.992 63.9124 24.272 63.4004 23.36C62.8884 22.432 62.6324 21.36 62.6324 20.144C62.6324 18.928 62.8884 17.864 63.4004 16.952C63.9124 16.024 64.6244 15.304 65.5364 14.792C66.4644 14.264 67.5364 14 68.7524 14C69.9684 14 71.0324 14.264 71.9444 14.792C72.8724 15.304 73.5924 16.024 74.1044 16.952C74.6164 17.864 74.8724 18.928 74.8724 20.144C74.8724 21.36 74.6164 22.432 74.1044 23.36C73.5924 24.272 72.8724 24.992 71.9444 25.52C71.0324 26.032 69.9684 26.288 68.7524 26.288ZM68.7524 23.24C69.6164 23.24 70.3204 22.952 70.8644 22.376C71.4084 21.8 71.6804 21.056 71.6804 20.144C71.6804 19.216 71.4084 18.464 70.8644 17.888C70.3204 17.312 69.6164 17.024 68.7524 17.024C67.8884 17.024 67.1844 17.312 66.6404 17.888C66.1124 18.448 65.8484 19.192 65.8484 20.12C65.8484 21.048 66.1124 21.8 66.6404 22.376C67.1844 22.952 67.8884 23.24 68.7524 23.24Z" fill="#7B9647"/>
<path d="M27.6308 26.12C27.1028 26.12 26.6148 26.008 26.1668 25.784C25.7348 25.56 25.3828 25.216 25.1108 24.752C24.8548 24.272 24.7268 23.656 24.7268 22.904V9.656H27.8468V21.8C27.8468 22.36 27.9588 22.728 28.1828 22.904C28.4068 23.064 28.6788 23.144 28.9988 23.144V25.952C28.8228 26.016 28.6068 26.056 28.3508 26.072C28.1108 26.104 27.8708 26.12 27.6308 26.12ZM33.9355 26.12C33.4075 26.12 32.9195 26.008 32.4715 25.784C32.0395 25.56 31.6875 25.216 31.4155 24.752C31.1595 24.272 31.0315 23.656 31.0315 22.904V9.656H34.1515V21.8C34.1515 22.36 34.2635 22.728 34.4875 22.904C34.7115 23.064 34.9835 23.144 35.3035 23.144V25.952C35.1275 26.016 34.9115 26.056 34.6555 26.072C34.4155 26.104 34.1755 26.12 33.9355 26.12ZM40.2402 26.12C39.7122 26.12 39.2242 26.008 38.7762 25.784C38.3442 25.56 37.9922 25.216 37.7202 24.752C37.4642 24.272 37.3362 23.656 37.3362 22.904V9.656H40.4562V21.8C40.4562 22.36 40.5682 22.728 40.7922 22.904C41.0162 23.064 41.2882 23.144 41.6082 23.144V25.952C41.4322 26.016 41.2162 26.056 40.9602 26.072C40.7202 26.104 40.4802 26.12 40.2402 26.12ZM59.9277 26.12C59.3997 26.12 58.9117 26.008 58.4637 25.784C58.0317 25.56 57.6797 25.216 57.4077 24.752C57.1517 24.272 57.0237 23.656 57.0237 22.904V9.656H60.1437V21.8C60.1437 22.36 60.2557 22.728 60.4797 22.904C60.7037 23.064 60.9757 23.144 61.2957 23.144V25.952C61.1197 26.016 60.9037 26.056 60.6477 26.072C60.4077 26.104 60.1677 26.12 59.9277 26.12Z" fill="#F8F9F8"/>
<path d="M4.128 15.224H7.2C8.128 15.224 8.864 14.984 9.408 14.504C9.952 14.024 10.224 13.344 10.224 12.464C10.224 11.536 9.952 10.84 9.408 10.376C8.88 9.896 8.152 9.656 7.224 9.656H4.104L4.776 8.96V23H1.632V6.656H7.512C8.712 6.656 9.752 6.904 10.632 7.4C11.512 7.88 12.2 8.552 12.696 9.416C13.192 10.28 13.44 11.296 13.44 12.464C13.44 13.616 13.192 14.632 12.696 15.512C12.2 16.376 11.504 17.048 10.608 17.528C9.728 18.008 8.696 18.248 7.512 18.248H4.128V15.224ZM23.8991 11.264L24.6911 14.504V23H21.5471V11.264H23.8991ZM24.0431 16.112L23.4671 15.848V13.448L23.6831 13.184C23.8591 12.896 24.1231 12.584 24.4751 12.248C24.8431 11.912 25.2591 11.624 25.7231 11.384C26.2031 11.128 26.6991 11 27.2111 11C27.4671 11 27.6991 11.016 27.9071 11.048C28.1151 11.08 28.2751 11.136 28.3871 11.216V14.072H27.6191C26.5791 14.072 25.7791 14.24 25.2191 14.576C24.6591 14.896 24.2671 15.408 24.0431 16.112ZM35.2802 23.216C34.0802 23.216 33.1282 22.904 32.4242 22.28C31.7362 21.64 31.3922 20.624 31.3922 19.232V11.408L31.3442 11.264L31.9922 8.504H34.5362V18.728C34.5362 19.24 34.6562 19.616 34.8962 19.856C35.1522 20.08 35.4722 20.192 35.8562 20.192C36.1122 20.192 36.3442 20.176 36.5522 20.144C36.7602 20.096 36.9442 20.048 37.1042 20V22.928C36.8482 23.024 36.5762 23.096 36.2882 23.144C36.0002 23.192 35.6642 23.216 35.2802 23.216ZM29.5682 14.168V11.264H37.1042V14.168H29.5682ZM40.4106 23V10.376C40.4106 9.512 40.5626 8.784 40.8666 8.192C41.1866 7.584 41.6266 7.128 42.1866 6.824C42.7466 6.52 43.4106 6.368 44.1786 6.368C44.5626 6.368 44.9066 6.392 45.2106 6.44C45.5146 6.488 45.7626 6.536 45.9546 6.584V9.464C45.7946 9.432 45.6266 9.4 45.4506 9.368C45.2906 9.336 45.0986 9.32 44.8746 9.32C44.4746 9.32 44.1546 9.44 43.9146 9.68C43.6746 9.904 43.5546 10.28 43.5546 10.808V23H40.4106ZM45.6906 14.408H38.7546V11.528H45.6906V14.408ZM56.6308 23.12C56.1028 23.12 55.6148 23.008 55.1668 22.784C54.7348 22.56 54.3828 22.216 54.1108 21.752C53.8548 21.272 53.7268 20.656 53.7268 19.904V6.656H56.8468V18.8C56.8468 19.36 56.9588 19.728 57.1828 19.904C57.4068 20.064 57.6788 20.144 57.9988 20.144V22.952C57.8228 23.016 57.6068 23.056 57.3508 23.072C57.1108 23.104 56.8708 23.12 56.6308 23.12ZM63.2235 23H60.0795V11.264H63.2235V23ZM59.7435 7.616C59.7435 7.04 59.9115 6.576 60.2475 6.224C60.5995 5.856 61.0635 5.672 61.6395 5.672C62.2155 5.672 62.6715 5.856 63.0075 6.224C63.3595 6.576 63.5355 7.04 63.5355 7.616C63.5355 8.16 63.3595 8.608 63.0075 8.96C62.6715 9.312 62.2155 9.488 61.6395 9.488C61.0635 9.488 60.5995 9.312 60.2475 8.96C59.9115 8.608 59.7435 8.16 59.7435 7.616Z" fill="#7B9647"/>
</svg>
