<svg width="353" height="64" viewBox="0 0 353 64" fill="none" xmlns="http://www.w3.org/2000/svg">
<path d="M14.16 51.768C12.336 51.768 10.608 51.496 8.976 50.952C7.344 50.408 5.872 49.56 4.56 48.408C3.28 47.256 2.192 45.752 1.296 43.896L6.288 40.872C7.28 42.568 8.448 43.832 9.792 44.664C11.136 45.496 12.688 45.912 14.448 45.912C16.048 45.912 17.264 45.576 18.096 44.904C18.928 44.2 19.344 43.272 19.344 42.12C19.344 41.384 19.152 40.76 18.768 40.248C18.416 39.704 17.776 39.192 16.848 38.712C15.92 38.232 14.576 37.8 12.816 37.416C10.192 36.776 8.128 35.976 6.624 35.016C5.152 34.056 4.112 32.936 3.504 31.656C2.896 30.344 2.592 28.904 2.592 27.336C2.592 25.448 3.04 23.8 3.936 22.392C4.864 20.952 6.176 19.816 7.872 18.984C9.568 18.152 11.584 17.736 13.92 17.736C16.608 17.736 18.864 18.264 20.688 19.32C22.512 20.344 24 21.736 25.152 23.496L20.16 26.904C19.264 25.752 18.24 24.936 17.088 24.456C15.968 23.944 14.816 23.688 13.632 23.688C12.096 23.688 10.912 23.992 10.08 24.6C9.28 25.208 8.88 26.056 8.88 27.144C8.88 28.104 9.28 28.936 10.08 29.64C10.912 30.312 12.512 30.936 14.88 31.512C17.568 32.152 19.712 32.936 21.312 33.864C22.912 34.792 24.048 35.912 24.72 37.224C25.424 38.536 25.776 40.12 25.776 41.976C25.776 43.832 25.296 45.496 24.336 46.968C23.408 48.44 22.064 49.608 20.304 50.472C18.576 51.336 16.528 51.768 14.16 51.768ZM137.42 51V18.312H143.708V51H137.42ZM155.612 51L141.452 35.16V34.248L155.948 18.312H163.772L147.788 35.88L148.076 33.528L163.868 51H155.612ZM201.954 51V27.528H206.658L207.954 32.04L205.938 31.944C206.77 30.984 207.682 30.136 208.674 29.4C209.666 28.664 210.738 28.088 211.89 27.672C213.074 27.224 214.306 27 215.586 27C217.186 27 218.466 27.272 219.426 27.816C220.386 28.36 221.09 29.096 221.538 30.024C222.018 30.952 222.338 32.008 222.498 33.192C222.69 34.344 222.786 35.544 222.786 36.792V51H216.498V36.744C216.498 35.304 216.21 34.344 215.634 33.864C215.058 33.384 214.37 33.144 213.57 33.144C212.418 33.144 211.298 33.496 210.21 34.2C209.122 34.872 208.21 35.736 207.474 36.792L206.658 33.528H208.242V51H201.954ZM230.994 51V36.744C230.994 35.304 230.706 34.344 230.13 33.864C229.586 33.384 228.914 33.144 228.114 33.144C226.962 33.144 225.842 33.496 224.754 34.2C223.666 34.872 222.754 35.736 222.018 36.792L220.434 31.944C221.266 30.984 222.178 30.136 223.17 29.4C224.194 28.664 225.282 28.088 226.434 27.672C227.618 27.224 228.85 27 230.13 27C231.698 27 232.962 27.272 233.922 27.816C234.882 28.36 235.602 29.096 236.082 30.024C236.562 30.952 236.882 32.008 237.042 33.192C237.234 34.344 237.33 35.544 237.33 36.792V51H230.994Z" fill="#0E131E"/>
<path d="M29.8286 51V18.312H36.1166V51H29.8286ZM44.9486 51V36.744C44.9486 35.304 44.6606 34.344 44.0846 33.864C43.5406 33.384 42.8366 33.144 41.9726 33.144C41.1726 33.144 40.3566 33.304 39.5246 33.624C38.6926 33.912 37.9086 34.344 37.1726 34.92C36.4686 35.464 35.8606 36.088 35.3486 36.792L33.8126 31.944C34.6446 30.984 35.5886 30.136 36.6446 29.4C37.7326 28.664 38.8846 28.088 40.1006 27.672C41.3166 27.224 42.5966 27 43.9406 27C45.5406 27 46.8206 27.272 47.7806 27.816C48.7726 28.36 49.5086 29.096 49.9886 30.024C50.5006 30.952 50.8366 32.008 50.9966 33.192C51.1566 34.344 51.2366 35.544 51.2366 36.792V51H44.9486ZM61.0639 27.528L62.6479 34.008V51H56.3599V27.528H61.0639ZM61.3519 37.224L60.1999 36.696V31.896L60.6319 31.368C60.9839 30.792 61.5119 30.168 62.2159 29.496C62.9519 28.824 63.7839 28.248 64.7119 27.768C65.6719 27.256 66.6639 27 67.6879 27C68.1999 27 68.6639 27.032 69.0799 27.096C69.4959 27.16 69.8159 27.272 70.0399 27.432V33.144H68.5039C66.4239 33.144 64.8239 33.48 63.7039 34.152C62.5839 34.792 61.7999 35.816 61.3519 37.224ZM81.2921 51.576C79.5321 51.576 78.1241 51.304 77.0681 50.76C76.0121 50.216 75.1961 49.496 74.6201 48.6C74.0761 47.672 73.7081 46.616 73.5161 45.432C73.3241 44.248 73.2281 43.016 73.2281 41.736V27.528H79.5161V41.784C79.5161 43.224 79.8201 44.184 80.4281 44.664C81.0681 45.144 81.8201 45.384 82.6841 45.384C83.4841 45.384 84.2841 45.24 85.0841 44.952C85.8841 44.664 86.6361 44.248 87.3401 43.704C88.0761 43.128 88.6841 42.472 89.1641 41.736L89.9321 45.048H88.3961V27.528H94.6841V51H89.9801L88.6841 46.536L90.7001 46.584C89.9001 47.512 88.9881 48.36 87.9641 49.128C86.9721 49.896 85.9001 50.504 84.7481 50.952C83.6281 51.368 82.4761 51.576 81.2921 51.576ZM118.9 51H112.612V27.528H118.9V51ZM111.94 20.232C111.94 19.08 112.276 18.152 112.948 17.448C113.652 16.712 114.58 16.344 115.732 16.344C116.884 16.344 117.796 16.712 118.468 17.448C119.172 18.152 119.524 19.08 119.524 20.232C119.524 21.32 119.172 22.216 118.468 22.92C117.796 23.624 116.884 23.976 115.732 23.976C114.58 23.976 113.652 23.624 112.948 22.92C112.276 22.216 111.94 21.32 111.94 20.232ZM172.544 51.672C170.816 51.672 169.296 51.352 167.984 50.712C166.672 50.04 165.664 49.112 164.96 47.928C164.256 46.712 163.904 45.304 163.904 43.704C163.904 42.104 164.272 40.712 165.008 39.528C165.776 38.344 166.816 37.432 168.128 36.792C169.44 36.12 170.928 35.784 172.592 35.784C174.864 35.784 176.704 36.312 178.112 37.368C179.552 38.392 180.528 39.864 181.04 41.784L178.112 41.4V35.736C178.112 34.84 177.792 34.04 177.152 33.336C176.512 32.632 175.472 32.28 174.032 32.28C173.136 32.28 172.144 32.392 171.056 32.616C169.968 32.808 168.832 33.192 167.648 33.768L165.776 29.16C167.152 28.488 168.608 27.96 170.144 27.576C171.712 27.192 173.28 27 174.848 27C176.992 27 178.768 27.384 180.176 28.152C181.584 28.92 182.64 29.976 183.344 31.32C184.048 32.664 184.4 34.2 184.4 35.928V51H179.408L178.064 46.536L181.04 45.672C180.496 47.56 179.488 49.032 178.016 50.088C176.576 51.144 174.752 51.672 172.544 51.672ZM174.272 46.872C175.424 46.872 176.352 46.584 177.056 46.008C177.76 45.432 178.112 44.664 178.112 43.704C178.112 42.712 177.76 41.944 177.056 41.4C176.352 40.824 175.424 40.536 174.272 40.536C173.12 40.536 172.192 40.824 171.488 41.4C170.784 41.944 170.432 42.712 170.432 43.704C170.432 44.664 170.784 45.432 171.488 46.008C172.192 46.584 173.12 46.872 174.272 46.872ZM262.076 51.672C260.348 51.672 258.828 51.352 257.516 50.712C256.204 50.04 255.196 49.112 254.492 47.928C253.788 46.712 253.436 45.304 253.436 43.704C253.436 42.104 253.804 40.712 254.54 39.528C255.308 38.344 256.348 37.432 257.66 36.792C258.972 36.12 260.46 35.784 262.124 35.784C264.396 35.784 266.236 36.312 267.644 37.368C269.084 38.392 270.06 39.864 270.572 41.784L267.644 41.4V35.736C267.644 34.84 267.324 34.04 266.684 33.336C266.044 32.632 265.004 32.28 263.564 32.28C262.668 32.28 261.676 32.392 260.588 32.616C259.5 32.808 258.364 33.192 257.18 33.768L255.308 29.16C256.684 28.488 258.14 27.96 259.676 27.576C261.244 27.192 262.812 27 264.38 27C266.524 27 268.3 27.384 269.708 28.152C271.116 28.92 272.172 29.976 272.876 31.32C273.58 32.664 273.932 34.2 273.932 35.928V51H268.94L267.596 46.536L270.572 45.672C270.028 47.56 269.02 49.032 267.548 50.088C266.108 51.144 264.284 51.672 262.076 51.672ZM263.804 46.872C264.956 46.872 265.884 46.584 266.588 46.008C267.292 45.432 267.644 44.664 267.644 43.704C267.644 42.712 267.292 41.944 266.588 41.4C265.884 40.824 264.956 40.536 263.804 40.536C262.652 40.536 261.724 40.824 261.02 41.4C260.316 41.944 259.964 42.712 259.964 43.704C259.964 44.664 260.316 45.432 261.02 46.008C261.724 46.584 262.652 46.872 263.804 46.872Z" fill="#4C6D5A"/>
<path d="M17.208 45.768C15.384 45.768 13.656 45.496 12.024 44.952C10.392 44.408 8.91997 43.56 7.60797 42.408C6.32797 41.256 5.23997 39.752 4.34397 37.896L9.33597 34.872C10.328 36.568 11.496 37.832 12.84 38.664C14.184 39.496 15.736 39.912 17.496 39.912C19.096 39.912 20.312 39.576 21.144 38.904C21.976 38.2 22.392 37.272 22.392 36.12C22.392 35.384 22.2 34.76 21.816 34.248C21.464 33.704 20.824 33.192 19.896 32.712C18.968 32.232 17.624 31.8 15.864 31.416C13.24 30.776 11.176 29.976 9.67197 29.016C8.19997 28.056 7.15997 26.936 6.55197 25.656C5.94397 24.344 5.63997 22.904 5.63997 21.336C5.63997 19.448 6.08797 17.8 6.98397 16.392C7.91197 14.952 9.22397 13.816 10.92 12.984C12.616 12.152 14.632 11.736 16.968 11.736C19.656 11.736 21.912 12.264 23.736 13.32C25.56 14.344 27.048 15.736 28.2 17.496L23.208 20.904C22.312 19.752 21.288 18.936 20.136 18.456C19.016 17.944 17.864 17.688 16.68 17.688C15.144 17.688 13.96 17.992 13.128 18.6C12.328 19.208 11.928 20.056 11.928 21.144C11.928 22.104 12.328 22.936 13.128 23.64C13.96 24.312 15.56 24.936 17.928 25.512C20.616 26.152 22.76 26.936 24.36 27.864C25.96 28.792 27.096 29.912 27.768 31.224C28.472 32.536 28.824 34.12 28.824 35.976C28.824 37.832 28.344 39.496 27.384 40.968C26.456 42.44 25.112 43.608 23.352 44.472C21.624 45.336 19.576 45.768 17.208 45.768ZM105.108 45.432C102.708 45.432 100.804 44.808 99.3963 43.56C98.0203 42.28 97.3323 40.248 97.3323 37.464V21.816L97.2363 21.528L98.5323 16.008H103.62V36.456C103.62 37.48 103.86 38.232 104.34 38.712C104.852 39.16 105.492 39.384 106.26 39.384C106.772 39.384 107.236 39.352 107.652 39.288C108.068 39.192 108.436 39.096 108.756 39V44.856C108.244 45.048 107.7 45.192 107.124 45.288C106.548 45.384 105.876 45.432 105.108 45.432ZM93.6843 27.336V21.528H108.756V27.336H93.6843ZM139.203 45V12.312H145.491V45H139.203ZM157.395 45L143.235 29.16V28.248L157.731 12.312H165.555L149.571 29.88L149.859 27.528L165.651 45H157.395ZM181.095 45V21.528H185.799L187.095 26.04L185.079 25.944C185.911 24.984 186.823 24.136 187.815 23.4C188.807 22.664 189.879 22.088 191.031 21.672C192.215 21.224 193.447 21 194.727 21C196.327 21 197.607 21.272 198.567 21.816C199.527 22.36 200.231 23.096 200.679 24.024C201.159 24.952 201.479 26.008 201.639 27.192C201.831 28.344 201.927 29.544 201.927 30.792V45H195.639V30.744C195.639 29.304 195.351 28.344 194.775 27.864C194.199 27.384 193.511 27.144 192.711 27.144C191.559 27.144 190.439 27.496 189.351 28.2C188.263 28.872 187.351 29.736 186.615 30.792L185.799 27.528H187.383V45H181.095ZM210.135 45V30.744C210.135 29.304 209.847 28.344 209.271 27.864C208.727 27.384 208.055 27.144 207.255 27.144C206.103 27.144 204.983 27.496 203.895 28.2C202.807 28.872 201.895 29.736 201.159 30.792L199.575 25.944C200.407 24.984 201.319 24.136 202.311 23.4C203.335 22.664 204.423 22.088 205.575 21.672C206.759 21.224 207.991 21 209.271 21C210.839 21 212.103 21.272 213.063 21.816C214.023 22.36 214.743 23.096 215.223 24.024C215.703 24.952 216.023 26.008 216.183 27.192C216.375 28.344 216.471 29.544 216.471 30.792V45H210.135ZM221.548 45V21.528H226.252L227.548 26.04L225.532 25.944C226.364 24.984 227.276 24.136 228.268 23.4C229.26 22.664 230.332 22.088 231.484 21.672C232.668 21.224 233.9 21 235.18 21C236.78 21 238.06 21.272 239.02 21.816C239.98 22.36 240.684 23.096 241.132 24.024C241.612 24.952 241.932 26.008 242.092 27.192C242.284 28.344 242.38 29.544 242.38 30.792V45H236.092V30.744C236.092 29.304 235.804 28.344 235.228 27.864C234.652 27.384 233.964 27.144 233.164 27.144C232.012 27.144 230.892 27.496 229.804 28.2C228.716 28.872 227.804 29.736 227.068 30.792L226.252 27.528H227.836V45H221.548ZM250.588 45V30.744C250.588 29.304 250.3 28.344 249.724 27.864C249.18 27.384 248.508 27.144 247.708 27.144C246.556 27.144 245.436 27.496 244.348 28.2C243.26 28.872 242.348 29.736 241.612 30.792L240.028 25.944C240.86 24.984 241.772 24.136 242.764 23.4C243.788 22.664 244.876 22.088 246.028 21.672C247.212 21.224 248.444 21 249.724 21C251.292 21 252.556 21.272 253.516 21.816C254.476 22.36 255.196 23.096 255.676 24.024C256.156 24.952 256.476 26.008 256.636 27.192C256.828 28.344 256.924 29.544 256.924 30.792V45H250.588Z" fill="#4C6D5A"/>
</svg>
